<svg width="40" height="19" viewBox="0 0 40 19" fill="none" xmlns="http://www.w3.org/2000/svg">
<path d="M0.702637 9.42413C0.702637 4.22068 4.69519 0.366264 10.0474 0.366264C15.378 0.366264 19.3921 4.23138 19.3921 9.42413C19.3921 14.5955 15.378 18.482 10.0474 18.482C4.69519 18.482 0.702637 14.5955 0.702637 9.42413ZM14.655 9.42413C14.655 6.6511 12.745 4.72389 10.0474 4.72389C7.3497 4.72389 5.43974 6.6511 5.43974 9.42413C5.43974 12.1972 7.3497 14.1244 10.0474 14.1244C12.745 14.1244 14.655 12.1972 14.655 9.42413Z" fill="#231331"/>
<path d="M20.6548 9.42413C20.6548 4.22068 24.6473 0.366264 29.9995 0.366264C35.3301 0.366264 39.3442 4.23138 39.3442 9.42413C39.3442 14.5955 35.3301 18.482 29.9995 18.482C24.6366 18.482 20.6548 14.5955 20.6548 9.42413ZM34.6071 9.42413C34.6071 6.6511 32.6972 4.72389 29.9995 4.72389C27.3018 4.72389 25.3919 6.6511 25.3919 9.42413C25.3919 12.1972 27.3018 14.1244 29.9995 14.1244C32.6864 14.1244 34.6071 12.1972 34.6071 9.42413Z" fill="#231331"/>
<path d="M0.778111 10.3984C0.486762 8.11792 1.05867 6.08365 2.24564 4.28492C2.55857 3.80312 3.58369 2.37913 5.29941 1.54401C8.0834 0.184257 12.0328 0.655352 13.3385 4.98086C14.1909 9.15647 10.3494 10.7732 7.88917 9.82029C6.87485 9.42414 6.13029 8.51407 5.8821 8.35347C3.78871 6.91877 1.4903 7.98944 0.778111 10.3984Z" fill="#231331"/>
<path d="M20.7195 10.3984C20.4282 8.11792 21.0001 6.08365 22.187 4.28492C22.5 3.80312 23.5251 2.37913 25.2408 1.54401C28.0248 0.184257 31.9742 0.655352 33.2799 4.98086C34.1323 9.15647 30.2908 10.7732 27.8306 9.82029C26.8162 9.42414 26.0717 8.51407 25.8235 8.35347C23.7301 6.91877 21.4425 7.98944 20.7195 10.3984Z" fill="#231331"/>
</svg>
